# xmcd CD database file
#
# Track frame offsets:
#	150
#	12949
#	26694
#	38622
#	51956
#	63016
#	75674
#	90131
#	103454
#	116688
#	132005
#	144494
#	158307
#	168314
#	177644
#	189544
#	199801
#	212715
#	225723
#	238326
#	249303
#	261788
#
# Disc length: 3648 seconds
#
# Revision: 2
# Processed by: cddbd v1.5.2PL0 Copyright (c) Steve Scherf et al.
# Submitted via: CDex 1.51
#
DISCID=240e3e16
DTITLE=J.B. Lenoir - J.B. Lenoir: The Mojo - The Job - Usa - Vj Recordings
DYEAR=1900
DGENRE=Blues
TTITLE0=(I Wanna) Play A Little While
TTITLE1=Louise
TTITLE2=Let's Roll
TTITLE3=People Are Meddeling In Our Affairs
TTITLE4=I Have Married
TTITLE5=The Mountain
TTITLE6=I'll Die Tryin
TTITLE7=How Much More
TTITLE8=The Mojo
TTITLE9=Slow Down Woman
TTITLE10=I Want My Baby
TTITLE11=How Can I Leave
TTITLE12=Oh Baby
TTITLE13=Do What I Say
TTITLE14=I Sing Um The Way I Feel
TTITLE15=I Feel So Good
TTITLE16=Let's Roll
TTITLE17=The Mojo
TTITLE18=Slow Down Woman
TTITLE19=I Want My Baby
TTITLE20=I Sing Um The Way I Feel
TTITLE21=I Feel So Good
EXTD=
EXTT0=
EXTT1=
EXTT2=
EXTT3=
EXTT4=
EXTT5=
EXTT6=
EXTT7=
EXTT8=
EXTT9=
EXTT10=
EXTT11=
EXTT12=
EXTT13=
EXTT14=
EXTT15=
EXTT16=
EXTT17=
EXTT18=
EXTT19=
EXTT20=
EXTT21=
PLAYORDER=
